<?xml version="1.0" encoding="UTF-8"?>
<svg id="Layer_1" xmlns="http://www.w3.org/2000/svg" version="1.1" viewBox="0 0 1363.7 662.1">
  <defs>
    <style>
      .st0 {
        fill: #0e1732;
      }

      .st1 {
        fill: #bd9c51;
      }
    </style>
  </defs>
  <g>
    <path class="st0" d="M168.2,292c-1.4,0-2.1-.3-2.2-.8l-51.8-109.9c-2-4.3-3.7-7.4-5-9.3-1.3-1.9-2.7-3.2-4.3-4-1.6-.7-3.6-1.1-6.2-1.1s-.6-.4-.6-1.2.2-1.2.6-1.2c2,0,3.5,0,4.3.2,2.7.3,6.2.4,10.6.4,9.1,0,16.7-.1,23-.4,1.8-.1,3.9-.2,6.5-.2s.6.4.6,1.2-.2,1.2-.6,1.2c-3.4,0-5.8.3-7.2,1-1.4.7-2.1,1.9-2.1,3.7s1.6,6.8,4.7,13.4l38.4,81.5-8.5,14,23.4-62,3.9,5.7-25,67c-.1.5-.9.8-2.2.8ZM284.4,165.6c0,.8-.1,1.2-.4,1.2-5,0-9.7,2.1-14.1,6.4-4.4,4.3-8,10.1-10.9,17.6l-37.6,100.4c-.1.5-.9.8-2.2.8s-2.1-.3-2.2-.8l-51.8-109.9c-2.3-4.9-4.5-8.5-6.5-10.9-2-2.4-4.2-3.6-6.5-3.6s-.6-.4-.6-1.2.2-1.2.6-1.2c1.4,0,2.9.1,4.8.3,1.8.2,4.4.3,7.8.3,7.7,0,14.1-.1,19.3-.4,1.4-.1,3.1-.2,5.3-.2s.6.4.6,1.2-.2,1.2-.6,1.2c-1.9,0-3.3.2-4.2.7-.9.5-1.3,1.3-1.3,2.5,0,2.3,1.8,7.2,5.5,14.8l38.8,81.5-8.7,14,32.9-88.2c1.6-4.3,2.4-8.3,2.4-11.8s-1.1-7.5-3.1-10c-2.1-2.4-4.9-3.7-8.4-3.7s-.6-.4-.6-1.2.2-1.2.6-1.2l9.3.2c4.9.3,9.3.4,13.4.4s5.8-.1,9.3-.4l8.7-.2c.3,0,.4.4.4,1.2ZM207.8,172.7c0-3.9-1.7-5.9-5.1-5.9s-.6-.4-.6-1.2.2-1.2.6-1.2c1.1,0,2.3.1,3.6.3,1.3.2,4.5.3,9.6.3s5.1-.1,8.3-.4l7.5-.2c.3,0,.4.4.4,1.2s-.1,1.2-.4,1.2c-9.1,0-16.6,8-22.5,24l-12.6,33.3-3.9-5.7,10.6-28.2c3-7.7,4.5-13.5,4.5-17.5Z"/>
    <path class="st0" d="M317.6,285c-9.8-5.9-17.4-13.9-22.8-24-5.4-10.1-8-21.1-8-33s3.5-25.9,10.6-35.9c7-10,16.1-17.4,27.1-22.4,11-5,22.3-7.5,33.8-7.5s24.2,3,33.9,9c9.8,6,17.2,14,22.4,23.9,5.2,9.9,7.8,20.4,7.8,31.5s-3.2,23.6-9.8,33.9c-6.5,10.3-15.2,18.4-26.1,24.4-10.9,6-22.7,8.9-35.4,8.9s-23.8-2.9-33.6-8.8ZM378.3,282.1c6-4.4,10.7-10.8,14.1-19.3,3.4-8.5,5.1-18.6,5.1-30.4s-1.9-23.6-5.7-33.4c-3.8-9.8-9.3-17.5-16.5-23.1-7.2-5.6-15.6-8.3-25.2-8.3s-21.8,4.6-28.4,13.9c-6.6,9.3-10,22.2-10,38.9s2,24.9,6,35.2c4,10.4,9.5,18.5,16.5,24.3,7,5.8,14.9,8.7,23.7,8.7s14.4-2.2,20.4-6.6Z"/>
    <path class="st0" d="M473.2,285c-9.8-5.9-17.4-13.9-22.8-24-5.4-10.1-8-21.1-8-33s3.5-25.9,10.6-35.9c7-10,16.1-17.4,27.1-22.4,11-5,22.3-7.5,33.8-7.5s24.2,3,33.9,9c9.8,6,17.2,14,22.4,23.9,5.2,9.9,7.8,20.4,7.8,31.5s-3.2,23.6-9.8,33.9c-6.5,10.3-15.2,18.4-26.1,24.4-10.9,6-22.7,8.9-35.4,8.9s-23.8-2.9-33.6-8.8ZM533.9,282.1c6-4.4,10.7-10.8,14.1-19.3,3.4-8.5,5.1-18.6,5.1-30.4s-1.9-23.6-5.7-33.4c-3.8-9.8-9.3-17.5-16.5-23.1-7.2-5.6-15.6-8.3-25.2-8.3s-21.8,4.6-28.4,13.9c-6.6,9.3-10,22.2-10,38.9s2,24.9,6,35.2c4,10.4,9.5,18.5,16.5,24.3,7,5.8,14.9,8.7,23.7,8.7s14.4-2.2,20.4-6.6Z"/>
    <path class="st0" d="M638.9,291.6c-2.2-.1-4.8-.3-8-.4-3.2-.1-6.7-.2-10.7-.2l-15,.2c-2.7.1-6.4.2-11,.2s-.4-.4-.4-1.2.1-1.2.4-1.2c4.3,0,7.5-.3,9.5-1,2-.7,3.4-2,4.2-4,.7-2,1.1-5,1.1-9v-94.1c0-4.1-.4-7-1.1-8.9-.7-1.9-2.1-3.2-4.1-4-2-.7-5-1.1-9.2-1.1s-.6-.4-.6-1.2.2-1.2.6-1.2l10.8.2c6.2.3,11.2.4,14.8.4,5.6,0,11.2-.2,17.1-.6,7-.3,11.8-.4,14.2-.4,13.7,0,25.8,2.7,36.5,8.1,10.6,5.4,18.9,12.8,24.7,22.1,5.8,9.3,8.7,19.8,8.7,31.5s-3,24.8-9,34.8c-6,10.1-14.2,17.9-24.4,23.4-10.2,5.5-21.4,8.2-33.6,8.2s-9.5-.2-15.4-.6ZM675.2,280.9c6.6-4.4,11.8-10.9,15.5-19.6,3.7-8.7,5.6-19,5.6-31.1s-1.8-22-5.3-31.4c-3.5-9.4-8.5-16.8-15-22.2-6.5-5.4-14-8.1-22.5-8.1s-14.2.8-17.3,2.4c-3.1,1.6-4.7,5.1-4.7,10.4v91.4c0,5.4,1.4,9.2,4.3,11.5s8.3,3.4,16.5,3.4,16.3-2.2,23-6.6Z"/>
    <path class="st0" d="M819.8,224.1c7,3,12.4,7.1,16.1,12.4,3.8,5.3,5.7,11.3,5.7,18.1s-2,13.4-6.1,19.1c-4.1,5.7-9.7,10.2-16.9,13.5-7.2,3.3-15.2,5-24,5s-8.1-.2-13-.6c-1.9-.1-4.2-.3-7-.4-2.8-.1-5.9-.2-9.2-.2l-14.8.2c-2.7.1-6.4.2-11,.2s-.6-.4-.6-1.2.2-1.2.6-1.2c3.9,0,6.9-.4,8.9-1.1,2-.7,3.5-2.1,4.4-4.1.9-2,1.3-4.9,1.3-8.8v-94.1c0-5.7-.9-9.4-2.8-11.3-1.9-1.8-5.8-2.7-11.6-2.7s-.4-.4-.4-1.2.1-1.2.4-1.2l10.8.2c6.2.3,11.2.4,14.8.4s7.7-.2,11.8-.6c1.4-.1,3.4-.3,6.1-.4,2.7-.1,5.1-.2,7.1-.2,12.3,0,21.9,2.2,28.6,6.7,6.8,4.5,10.2,11,10.2,19.5s-3.1,14.8-9.2,20.8c-6.2,6-15,10.2-26.5,12.5l2.2-3.7c9.1,0,17.1,1.5,24.1,4.5ZM779.2,171c-1.5,1.8-2.2,5.2-2.2,10.3v39.8l-7.5-1.4c6,.3,11.2.4,15.6.4,7,0,12.5-2.6,16.3-7.9,3.8-5.3,5.7-12.1,5.7-20.3s-1.7-13.6-5.1-17.6c-3.4-4-8.3-6-14.6-6s-6.6.9-8.1,2.7ZM817.8,259.5c0-10.4-2.5-18.7-7.5-24.8-5-6.1-12.6-9.1-22.8-9.1s-12.4.4-17.3,1.2l6.7-2.4v50.6c0,4.5.9,7.6,2.6,9.4,1.8,1.8,5.6,2.7,11.6,2.7,17.7,0,26.6-9.2,26.6-27.6Z"/>
    <path class="st0" d="M963.2,173.2c-3.3-4.2-8-6.3-13.9-6.3s-.4-.4-.4-1.2.1-1.2.4-1.2l9.8.2c5.1.3,9.3.4,12.4.4s6.3-.1,11.2-.4l9.3-.2c.3,0,.4.4.4,1.2s-.1,1.2-.4,1.2c-5.3,0-9.4,2.1-12.4,6.3-3,4.2-4.5,10-4.5,17.3v56.5c0,9.5-2.1,17.8-6.3,25-4.2,7.2-10.1,12.7-17.8,16.6-7.7,3.9-16.5,5.8-26.5,5.8s-18.9-1.9-26.6-5.7c-7.7-3.8-13.8-9.3-18.2-16.6-4.4-7.2-6.6-15.7-6.6-25.5v-65.6c0-4.1-.4-7-1.1-8.9-.7-1.9-2.1-3.2-4.1-4-2-.7-5-1.1-9.2-1.1s-.6-.4-.6-1.2.2-1.2.6-1.2l10.8.2c6.2.3,11.2.4,14.8.4s9.2-.1,15.4-.4l10.4-.2c.4,0,.6.4.6,1.2s-.2,1.2-.6,1.2c-4.2,0-7.3.4-9.2,1.2-2,.8-3.3,2.2-4.1,4.2-.7,2-1.1,5-1.1,9v58.1c0,16.1,3.2,28,9.5,35.8,6.4,7.7,15.4,11.6,27,11.6s20-3.4,26.4-10.3c6.4-6.8,9.5-16.6,9.5-29.4v-56.7c0-7.3-1.7-13.1-5-17.3Z"/>
    <path class="st0" d="M1087.6,170.6c6.8,4.5,10.2,10.9,10.2,19s-2.2,14.7-6.6,20.9c-4.4,6.2-10.1,11.1-17.2,14.5-7,3.5-14.4,5.2-22.1,5.2s-9,0-11.2-.2v44.9c0,4.2.3,7.2,1,9.1.7,1.9,2,3.2,4,3.9,2,.7,5.1,1,9.4,1s.4.4.4,1.2-.1,1.2-.4,1.2c-4.5,0-8,0-10.6-.2l-15.4-.2-14.8.2c-2.7.1-6.4.2-11,.2s-.6-.4-.6-1.2.2-1.2.6-1.2c4.3,0,7.5-.3,9.4-1,2-.7,3.3-2,4.1-4,.7-2,1.1-5,1.1-9v-94.1c0-4.1-.3-7-1-8.9-.7-1.9-2-3.2-4.1-4-2-.7-5.1-1.1-9.3-1.1s-.4-.4-.4-1.2.1-1.2.4-1.2l10.8.2c6.2.3,11.2.4,14.8.4s9.4-.2,14.4-.6c1.8-.1,4-.3,6.6-.4,2.6-.1,5.6-.2,8.8-.2,12.3,0,21.9,2.3,28.6,6.8ZM1069.7,174.4c-3.3-4.2-7.9-6.3-14-6.3s-9.3,1-11.6,3c-2.3,2-3.5,5.4-3.5,10.2v43.1c3.2.5,7.2.8,11.8.8,7.9,0,13.5-2.2,17-6.6,3.5-4.4,5.2-11.5,5.2-21.2s-1.6-18.8-4.9-23ZM1085.4,274.4c-8.4-11.3-18.6-27-30.5-47.2l18.7-5.7c11.2,17.1,20.6,30.4,28.1,40,7.5,9.6,14.2,16.6,20,20.9,5.8,4.3,11.5,6.5,17.1,6.5s.4.4.4,1.2-.1,1.2-.4,1.2h-36.2c-3.1,0-8.9-5.7-17.3-17Z"/>
    <path class="st0" d="M1134.4,171.4c-3.3-3-6.1-4.6-8.4-4.6s-.6-.4-.6-1.2.2-1.2.6-1.2l6.3.2c3,.3,5.1.4,6.3.4,4.7,0,11.6-.1,20.5-.4l13.4-.2c.3,0,.4.4.4,1.2s-.1,1.2-.4,1.2c-2.3,0-4.1.5-5.4,1.6-1.3,1.1-1.9,2.5-1.9,4.3s.9,4.7,2.8,7.7l29.3,46.1-19.5,9.1-30.9-47.9c-5-7.9-9.2-13.3-12.5-16.4ZM1199.1,226.6v48.3c0,4.2.3,7.2,1,9.1.7,1.9,2,3.2,4,3.9,2,.7,5.1,1,9.4,1s.6.4.6,1.2-.2,1.2-.6,1.2c-4.5,0-8,0-10.6-.2l-15.2-.2-15,.2c-2.7.1-6.4.2-11,.2s-.4-.4-.4-1.2.1-1.2.4-1.2c4.3,0,7.5-.3,9.5-1,2-.7,3.4-2,4.2-4,.7-2,1.1-5,1.1-9v-46.5l22.5-1.8ZM1220,176.8c0-3.3-1-5.7-2.9-7.4-2-1.7-4.8-2.5-8.4-2.5s-.6-.4-.6-1.2.2-1.2.6-1.2l10.8.2c6.2.3,11.8.4,16.7.4s5.1-.1,8.3-.4l7.5-.2c.3,0,.4.4.4,1.2s-.1,1.2-.4,1.2c-4.2,0-9.3,2.6-15.4,7.8-6.1,5.2-11.5,11.8-16.3,19.6l-26.4,44.1-4.3-3.5,25-42.5c3.7-6.1,5.5-11.3,5.5-15.6Z"/>
    <path class="st1" d="M554.4,454.5c-.6.1-1.1,0-1.3-.2l-100.1-114c-4.7-5.4-8.8-9.1-12.2-11.2-3.4-2-6.8-3-10.4-3s-.4-.4-.4-1.2.1-1.2.4-1.2l8.5.2c1.8.1,4.3.2,7.7.2l15.4-.2c1.9-.1,4.2-.2,6.9-.2s1.9.3,2.4.8c.5.5,1.5,1.7,2.8,3.5,2.3,3.1,3.9,5.2,4.9,6.3l74.6,85.9,1.6,33.5c0,.4-.3.7-.9.8ZM451.7,328.3l6.1.4v96.1c0,7.2,1.5,12.9,4.5,17.1,3,4.2,7.1,6.3,12.4,6.3s.4.4.4,1.2-.1,1.2-.4,1.2c-3.8,0-6.7,0-8.7-.2l-11-.2-12.6.2c-2.3.1-5.6.2-10,.2s-.6-.4-.6-1.2.2-1.2.6-1.2c6,0,10.7-2.1,14.1-6.3,3.5-4.2,5.2-9.9,5.2-17.1v-96.5ZM555.3,453.6l-5.9-6.1v-97.9c0-7.3-1.5-13.1-4.5-17.3-3-4.2-7.1-6.3-12.4-6.3s-.4-.4-.4-1.2.1-1.2.4-1.2l8.7.2c4.3.3,8,.4,11,.4s6.5-.1,11.4-.4l9.1-.2c.3,0,.4.4.4,1.2s-.1,1.2-.4,1.2c-5.4,0-9.7,2.1-12.8,6.4-3.1,4.3-4.7,10-4.7,17.2v104Z"/>
    <path class="st1" d="M582.9,449.4c0-.8.2-1.2.6-1.2,4.3,0,7.5-.3,9.4-1,2-.7,3.3-2,4-4,.7-2,1-5,1-9v-94.1c0-4.1-.3-7-1-8.9-.7-1.9-2-3.2-4.1-4-2-.7-5.1-1.1-9.3-1.1s-.6-.4-.6-1.2.2-1.2.6-1.2h86.1c1.4,0,2,.6,2,1.8l.4,27c0,.3-.4.5-1.1.6-.7.1-1.2,0-1.3-.4-2.2-7.9-5.8-13.7-11-17.5-5.1-3.8-11.9-5.7-20.3-5.7h-6.1c-4.1,0-7,.9-8.9,2.6-1.9,1.8-2.8,4.5-2.8,8.1v93c0,3.9.7,6.8,2.2,8.7,1.5,1.9,3.9,2.8,7.1,2.8h6.7c10.6,0,19-2.2,25.4-6.5,6.4-4.3,11-11,14-20.1,0-.3.3-.4.8-.4s.8.1,1.1.3.5.4.5.5c-1.4,10.6-2,20.2-2,28.8s-.2,1.9-.6,2.3c-.4.5-1.2.7-2.4.7h-89.8c-.4,0-.6-.4-.6-1.2ZM655.5,392.2c-4.3-3.2-10.4-4.8-18.4-4.8h-27.4v-5.7h27.6c7.9,0,13.9-1.4,18.1-4.1,4.2-2.7,6.3-6.5,6.3-11.4s.4-.6,1.1-.6,1.1.2,1.1.6l-.2,18.3.2,9.8c.3,4.6.4,8.3.4,11s-.4.4-1.2.4-1.2-.1-1.2-.4c0-5.6-2.1-9.9-6.4-13.1Z"/>
    <path class="st1" d="M726.4,357.2c2.5,3.8,5.6,7.1,9.2,10,3.7,2.8,8.6,6.3,14.8,10.4,6.8,4.3,12.2,8.1,16.3,11.4,4.1,3.3,7.5,7.2,10.4,11.9,2.8,4.7,4.3,10.1,4.3,16.1s-1.9,13.3-5.7,18.8c-3.8,5.5-9,9.8-15.7,12.8-6.7,3-14.2,4.6-22.4,4.6s-12.3-.8-19-2.5-11.2-3.6-13.5-5.6c-.7-.5-1.2-1-1.5-1.5-.3-.5-.5-1.3-.5-2.3l-.6-32.3v-.2c0-.5.3-.8,1-.9.7,0,1.1.2,1.2.7,4.1,8.3,7.6,15,10.7,20.1,3,5.1,6.9,9.7,11.6,13.6,4.7,3.9,10,5.9,15.9,5.9s9.9-1.5,13.4-4.4c3.5-2.9,5.3-7.9,5.3-14.9s-1.3-11.2-4-15.6c-2.6-4.5-5.9-8.3-9.6-11.4-3.8-3.1-9-6.8-15.6-11.2-6.5-4.2-11.5-7.8-15.1-10.8-3.6-3-6.7-6.6-9.2-10.8-2.6-4.2-3.9-9.1-3.9-14.8s2.1-13.2,6.2-18.2c4.1-4.9,9.4-8.6,15.9-11,6.5-2.4,13.3-3.6,20.5-3.6s9.5.4,14.4,1.3c4.9.9,8.8,1.9,11.8,3.1,1.2.5,2,1.1,2.4,1.7.4.6.6,1.4.6,2.3v29.9c0,.4-.3.7-1,.9-.7.2-1.1.1-1.2-.3l-1.6-3.9c-3.4-8.5-7.3-15.8-11.9-21.7-4.5-6-10.9-8.9-19-8.9s-9.9,1.6-13.3,4.7c-3.5,3.1-5.2,7.7-5.2,13.6s1.3,9.2,3.8,13Z"/>
    <path class="st1" d="M802.3,359.8c-.1.4-.5.6-1.2.5-.7,0-1-.3-1-.7.5-5.4,1.1-12.4,1.8-21,.7-8.6,1-15.1,1-19.4s.4-1,1.1-1,1.1.3,1.1,1c0,3,3.9,4.5,11.6,4.5,11.6.4,25.3.6,40.8.6s16.5-.1,25.4-.4l13.8-.2c5.1,0,8.9-.3,11.3-1,2.4-.7,3.9-2,4.6-4.1.1-.5.6-.8,1.3-.8s1.1.3,1.1.8c-.4,4.1-.8,10.6-1.3,19.5-.5,8.9-.7,16.1-.7,21.5s-.3.6-1,.6-1.1-.2-1.2-.6c-2-10.4-5.8-18.2-11.4-23.5-5.6-5.2-12.4-7.8-20.5-7.8s-6.5.8-7.8,2.5c-1.3,1.7-1.9,4.9-1.9,9.6v93.6c0,4.2.4,7.2,1.2,9.1.8,1.9,2.4,3.2,4.7,3.9,2.3.7,6,1,11,1s.6.4.6,1.2-.2,1.2-.6,1.2c-4.9,0-8.7,0-11.6-.2l-16.9-.2-16.5.2c-2.8.1-6.8.2-11.8.2s-.6-.4-.6-1.2.2-1.2.6-1.2c4.9,0,8.5-.3,10.9-1,2.4-.7,4-2,4.9-4,.9-2,1.3-5,1.3-9v-94.1c0-4.6-.6-7.7-1.8-9.3s-3.7-2.4-7.5-2.4c-16.1,0-27.7,10.5-34.7,31.5Z"/>
  </g>
  <g>
    <path class="st0" d="M431.6,508.2v-5.3h22.8v5.3h-22.8ZM437.6,538.7v-38.9c0-3.5,1-6.3,3.1-8.4,2-2.1,5-3.1,8.7-3.1s2.7.2,4,.5c1.3.3,2.4.9,3.3,1.6l-2,4.9c-.7-.5-1.4-1-2.3-1.2-.9-.3-1.8-.4-2.7-.4-1.9,0-3.3.5-4.3,1.6-1,1.1-1.5,2.6-1.5,4.7v7.8c.1,0,.1,31.1.1,31.1h-6.5ZM463.8,496c-1.3,0-2.3-.4-3.1-1.2-.8-.8-1.2-1.8-1.2-3s.4-2.2,1.2-3c.8-.8,1.9-1.2,3.1-1.2s2.3.4,3.1,1.2c.8.8,1.2,1.8,1.2,2.9s-.4,2.2-1.2,3.1c-.8.8-1.9,1.2-3.2,1.2ZM460.5,538.7v-35.8h6.5v35.8h-6.5Z"/>
    <path class="st0" d="M498.4,502.6c2.9,0,5.5.6,7.7,1.7s4,2.8,5.2,5.1c1.3,2.3,1.9,5.2,1.9,8.7v20.6h-6.5v-19.8c0-3.5-.8-6.1-2.5-7.8-1.7-1.8-4.1-2.6-7.1-2.6s-4.3.5-6,1.3c-1.7.9-3,2.2-3.9,4-.9,1.8-1.4,3.9-1.4,6.5v18.4h-6.5v-35.8h6.2v9.7l-1-2.6c1.2-2.3,3-4.2,5.4-5.5,2.4-1.3,5.3-2,8.5-2Z"/>
    <path class="st0" d="M540.1,539.1c-3.5,0-6.6-.8-9.3-2.3-2.7-1.5-4.9-3.7-6.4-6.4-1.6-2.7-2.4-5.9-2.4-9.6s.8-6.8,2.4-9.6c1.6-2.7,3.7-4.8,6.4-6.4,2.7-1.5,5.8-2.3,9.3-2.3s5.7.7,8.2,2c2.4,1.4,4.4,3.4,5.8,6.1,1.5,2.7,2.2,6.1,2.2,10.1s-.7,7.4-2.1,10.1-3.3,4.7-5.8,6.1c-2.4,1.4-5.2,2.1-8.3,2.1ZM540.6,533.4c2.2,0,4.3-.5,6.1-1.6,1.8-1,3.3-2.5,4.3-4.4,1.1-1.9,1.6-4.1,1.6-6.6s-.5-4.8-1.6-6.6c-1.1-1.9-2.5-3.3-4.3-4.4-1.8-1-3.9-1.6-6.1-1.6s-4.3.5-6.1,1.6c-1.8,1-3.2,2.5-4.3,4.4s-1.6,4.1-1.6,6.6.5,4.7,1.6,6.6c1.1,1.9,2.5,3.4,4.3,4.4,1.8,1,3.8,1.6,6.1,1.6ZM552.9,538.7v-9.7l.4-8.3-.7-8.3v-23.8h6.5v50.1h-6.2Z"/>
    <path class="st0" d="M591.1,552.2c-1.7,0-3.4-.3-5-.8-1.6-.6-3-1.4-4.2-2.5l2.8-4.9c.9.9,1.9,1.5,3,2,1.1.4,2.2.7,3.4.7s2.9-.4,3.9-1.2c1-.8,2-2.3,2.9-4.3l2.2-4.9.7-.8,14-32.5h6.3l-17.3,39.4c-1,2.5-2.2,4.5-3.5,5.9-1.3,1.4-2.7,2.5-4.2,3.1-1.5.6-3.2.9-5.1.9ZM599.6,539.8l-16.3-36.9h6.8l13.9,31.9-4.3,5.1Z"/>
    <path class="st0" d="M641.5,539.1c-3.6,0-6.7-.8-9.6-2.4-2.8-1.6-5-3.7-6.6-6.5s-2.4-5.9-2.4-9.4.8-6.7,2.4-9.4,3.8-4.9,6.6-6.4c2.8-1.6,6-2.4,9.6-2.4s6.7.8,9.6,2.3c2.8,1.6,5,3.7,6.6,6.4,1.6,2.7,2.4,5.9,2.4,9.5s-.8,6.7-2.4,9.5c-1.6,2.7-3.8,4.9-6.6,6.5-2.8,1.6-6,2.4-9.6,2.4ZM641.5,533.4c2.3,0,4.4-.5,6.2-1.6,1.8-1,3.3-2.5,4.3-4.4,1-1.9,1.6-4.1,1.6-6.6s-.5-4.8-1.6-6.6c-1-1.9-2.5-3.3-4.3-4.4-1.8-1-3.9-1.6-6.2-1.6s-4.3.5-6.1,1.6c-1.8,1-3.2,2.5-4.3,4.4s-1.6,4.1-1.6,6.6.5,4.7,1.6,6.6c1.1,1.9,2.5,3.4,4.3,4.4,1.8,1,3.8,1.6,6.1,1.6Z"/>
    <path class="st0" d="M684.1,539.1c-3.1,0-5.7-.6-8.1-1.7-2.3-1.1-4.1-2.8-5.4-5.2-1.3-2.3-1.9-5.2-1.9-8.7v-20.6h6.5v19.8c0,3.5.8,6.1,2.5,7.9s4.1,2.6,7.1,2.6,4.2-.5,5.9-1.4c1.7-.9,2.9-2.3,3.8-4,.9-1.8,1.4-3.9,1.4-6.4v-18.5h6.5v35.8h-6.1v-9.7l1,2.6c-1.2,2.4-2.9,4.2-5.3,5.5-2.3,1.3-5,2-7.9,2Z"/>
    <path class="st0" d="M714.8,538.7v-35.8h6.2v9.7l-.6-2.4c1-2.5,2.7-4.4,5-5.7,2.3-1.3,5.2-2,8.6-2v6.3c-.3,0-.5,0-.8,0h-.7c-3.5,0-6.2,1-8.2,3.1-2,2.1-3,5.1-3,9v17.8h-6.5Z"/>
    <path class="st0" d="M779.7,502.6c2.9,0,5.5.6,7.7,1.7s4,2.8,5.2,5.1,1.9,5.2,1.9,8.7v20.6h-6.5v-19.8c0-3.5-.8-6.1-2.5-7.8-1.7-1.8-4.1-2.6-7.1-2.6s-4.3.5-6,1.3c-1.7.9-3,2.2-3.9,4-.9,1.8-1.4,3.9-1.4,6.5v18.4h-6.5v-35.8h6.2v9.7l-1-2.6c1.2-2.3,3-4.2,5.4-5.5,2.4-1.3,5.3-2,8.5-2Z"/>
    <path class="st0" d="M822.5,539.1c-3.8,0-7.2-.8-10.1-2.4s-5.2-3.7-6.8-6.5c-1.6-2.7-2.4-5.9-2.4-9.5s.8-6.7,2.3-9.5c1.6-2.7,3.7-4.9,6.4-6.4s5.8-2.3,9.2-2.3,6.5.8,9.2,2.3c2.7,1.5,4.7,3.7,6.2,6.4,1.5,2.8,2.3,6,2.3,9.7s0,.6,0,.9c0,.4,0,.7-.1,1h-30.4v-4.7h27.1l-2.6,1.6c0-2.3-.4-4.3-1.4-6.1-1-1.8-2.4-3.2-4.1-4.2-1.7-1-3.7-1.5-6-1.5s-4.3.5-6,1.5c-1.8,1-3.1,2.4-4.1,4.3-1,1.8-1.5,3.9-1.5,6.2v1.1c0,2.4.6,4.5,1.7,6.4,1.1,1.9,2.6,3.3,4.6,4.4,2,1,4.3,1.6,6.8,1.6s4-.4,5.8-1.1c1.7-.7,3.2-1.8,4.6-3.2l3.6,4.2c-1.6,1.9-3.6,3.3-6,4.3-2.4,1-5.1,1.5-8.1,1.5Z"/>
    <path class="st0" d="M858.2,539.1c-3,0-5.8-.4-8.5-1.2-2.7-.8-4.8-1.8-6.3-3l2.7-5.1c1.5,1,3.4,1.9,5.7,2.6,2.2.7,4.5,1.1,6.9,1.1s5.2-.4,6.5-1.3c1.3-.9,2-2,2-3.6s-.4-2-1.2-2.6c-.8-.6-1.9-1.1-3.2-1.4-1.3-.3-2.8-.6-4.4-.8-1.6-.2-3.2-.6-4.9-.9-1.6-.4-3.1-.9-4.5-1.6-1.4-.7-2.4-1.7-3.2-2.9-.8-1.2-1.2-2.9-1.2-5s.6-4.1,1.8-5.7c1.2-1.6,2.9-2.9,5.2-3.7,2.2-.9,4.9-1.3,7.9-1.3s4.7.3,7.1.8c2.4.6,4.4,1.4,5.9,2.4l-2.8,5.1c-1.6-1.1-3.3-1.8-5.1-2.2-1.8-.4-3.5-.6-5.3-.6-2.8,0-5,.5-6.3,1.4-1.4.9-2.1,2.1-2.1,3.5s.4,2.1,1.2,2.8c.8.7,1.9,1.2,3.2,1.5,1.3.4,2.8.7,4.4.9,1.6.2,3.2.6,4.9.9,1.6.4,3.1.9,4.4,1.6s2.4,1.6,3.2,2.8c.8,1.2,1.2,2.8,1.2,4.9s-.6,4-1.9,5.6-3,2.8-5.3,3.7c-2.3.9-5,1.3-8.2,1.3Z"/>
    <path class="st0" d="M876.6,508.2v-5.3h22.8v5.3h-22.8ZM894,539.1c-3.6,0-6.4-1-8.4-2.9-2-1.9-3-4.7-3-8.3v-32.8h6.5v32.5c0,1.9.5,3.4,1.5,4.5,1,1,2.4,1.6,4.2,1.6s3.7-.6,5.1-1.7l2,4.7c-1,.9-2.2,1.5-3.5,1.9-1.4.4-2.8.6-4.3.6Z"/>
    <path class="st0" d="M911.9,539.1c-1.3,0-2.3-.4-3.2-1.3-.9-.9-1.3-2-1.3-3.3s.4-2.5,1.3-3.3c.9-.9,2-1.3,3.2-1.3s2.3.4,3.1,1.3c.9.9,1.3,2,1.3,3.3s-.4,2.5-1.3,3.3c-.9.9-1.9,1.3-3.1,1.3Z"/>
  </g>
</svg>